<svg xmlns="http://www.w3.org/2000/svg" xmlns:xlink="http://www.w3.org/1999/xlink" width="1920" height="330" viewBox="0 0 1920 330">
    <defs>
        <path id="a" d="M0 0h1921v330H0z"/>
    </defs>
    <g fill="none" fill-rule="evenodd">
        <mask id="b" fill="#fff">
            <use xlink:href="#a"/>
        </mask>
        <use fill="#D8D8D8" xlink:href="#a"/>
        <g fill-rule="nonzero" stroke-width="1.51" mask="url(#b)">
            <path fill="#81C4C6" stroke="#81C4C6" d="M1017.111 68.483L1155.428-.303l-148.795-149.035z"/>
            <path fill="#87C8CC" stroke="#87C8CC" d="M1007.058-149.338L800.946 13.246l216.628 55.237z"/>
            <path fill="#7FBCC6" stroke="#7FBCC6" d="M1006.633-150.415l-205.687-22.883V11.85z"/>
            <path fill="#80C8C2" stroke="#80C8C2" d="M1017.574 67.536l155.359 146.887L1156.137-1.22z"/>
            <path fill="#79C0BC" stroke="#79C0BC" d="M1155.428-1.364l150.983 24.105-90.59-111.09z"/>
            <path fill="#82C9C5" stroke="#82C9C5" d="M853.462 220.958h188.181l-23.128-152.475z"/>
            <path fill="#7CC5BE" stroke="#7CC5BE" d="M1172.088 214.423L1306.41 22.741 1155.428-1.22z"/>
            <path fill="#7DC5BF" stroke="#7DC5BF" d="M1040.668 220.958l132.265-6.224-155.36-146.251z"/>
            <path fill="#86CBCB" stroke="#86CBCB" d="M800.946 11.85l51.528 209.108 165.1-153.695z"/>
            <path fill="#72B8B5" stroke="#72B8B5" d="M1308.022 22.74l64.033-182.97-155.359 72.773z"/>
            <path fill="#7BB4C2" stroke="#7BB4C2" d="M800.946-173.298L660.904-91.126 800.946 11.85z"/>
            <path fill="#7EBEC3" stroke="#7EBEC3" d="M802.096 11.85L628.082 163.453l225.38 57.505z"/>
            <path fill="#6DB3AF" stroke="#6DB3AF" d="M1306.41 22.74l194.747-162.177-130.533-20.792z"/>
            <path fill="#74C0B4" stroke="#74C0B4" d="M1172.933 215.635l192.558 3.145-57.558-196.04z"/>
            <path fill="#6BBAAB" stroke="#6BBAAB" d="M1378.62 347.294l-12.593-129.732-193.094-3.139z"/>
            <path fill="#7DC6C0" stroke="#7DC6C0" d="M853.462 220.958l13.667 117.623 174.514-117.623z"/>
            <path fill="#72BFB3" stroke="#72BFB3" d="M1039.455 220.674l146.607 209.392-14.66-215.643z"/>
            <path fill="#73B9B5" stroke="#73B9B5" d="M640.022 393.037l225.38-55.274-13.564-116.805z"/>
            <path fill="#7CB6C2" stroke="#7CB6C2" d="M661.46-90.526L623.706-1.594 800.946 11.85z"/>
            <path fill="#79C3BA" stroke="#79C3BA" d="M866.59 338.059l115.59 39.73 57.275-156.831z"/>
            <path fill="#6FB9B0" stroke="#6FB9B0" d="M1544.92 75.018l-44.13-215.643-194.38 163.302z"/>
            <path fill="#7FBCC5" stroke="#7FBCC5" d="M623.705-1.22l3.147 165.544L800.946 12.401z"/>
            <path fill="#71BEB2" stroke="#71BEB2" d="M982.563 377.009l203.499 53.057-146.102-209.108z"/>
            <path fill="#70BEB1" stroke="#70BEB1" d="M1364.2 218.78l180.72-143.623-238.51-52.416z"/>
            <path fill="#68B8A8" stroke="#68B8A8" d="M1505.278 257.987l39.642-182.97-179.43 143.24z"/>
            <path fill="#6AB9A9" stroke="#6AB9A9" d="M1187.625 430.066l190.995-83.34-205.687-132.303z"/>
            <path fill="#65B6A4" stroke="#65B6A4" d="M1378.032 347.294l127.5-89.13-140.041-39.384z"/>
            <path fill="#78B3BF" stroke="#78B3BF" d="M622.76-1.22L463.97 51.168l161.923 113.156z"/>
            <path fill="#74A9BB" stroke="#74A9BB" d="M500.75-114.487L463.97 51.057 623.705-1z"/>
            <path fill="#73B5B7" stroke="#73B5B7" d="M628.082 164.324l12.579 228.713 212.8-171.535z"/>
            <path fill="#6DABB2" stroke="#6DABB2" d="M463.97 195.512l175.052 197.525-12.503-228.713z"/>
            <path fill="#5DB19C" stroke="#5DB19C" d="M1376.432 347.506l194.746 28.105-66.32-117.624z"/>
            <path fill="#71ACB8" stroke="#71ACB8" d="M465.022 51.057L463.97 194.82l164.112-31.252z"/>
            <path fill="#61ABA2" stroke="#61ABA2" d="M1691.526 11.85l-18.931-159.01-171.438 7.275z"/>
            <path fill="#68B5A9" stroke="#68B5A9" d="M1691.526 12.209l-190.37-152.834 44.175 215.643z"/>
            <path fill="#6DA0B6" stroke="#6DA0B6" d="M501.168-114.487L363.314-92.622l101.302 143.68z"/>
            <path fill="#68A0B0" stroke="#68A0B0" d="M319.551 64.127l57.558 185.148 86.86-54.394z"/>
            <path fill="#64B6A4" stroke="#64B6A4" d="M1706.843 218.78L1690.13 11.85l-145.21 62.706z"/>
            <path fill="#62B4A1" stroke="#62B4A1" d="M1505.533 257.987l201.31-38.685L1545.17 75.018z"/>
            <path fill="#5AB099" stroke="#5AB099" d="M1571.246 375.61l135.597-156.83-201.31 38.685z"/>
            <path fill="#66A4AA" stroke="#66A4AA" d="M463.97 194.82l29.175 217.82 145.877-19.801z"/>
            <path fill="#659FA9" stroke="#659FA9" d="M376.443 249.014L492.416 412.64 463.16 194.82z"/>
            <path fill="#6FA5B6" stroke="#6FA5B6" d="M319.551 64.6l145.552 130.22 1.055-143.763z"/>
            <path fill="#6EA1B7" stroke="#6EA1B7" d="M363.85-92.705L319.55 64.127l146.607-13.502z"/>
            <path fill="#5CA89C" stroke="#5CA89C" d="M1827.192-145.081l-155.36-2.079 18.896 159.01z"/>
            <path fill="#55AC93" stroke="#55AC93" d="M1571.178 375.61l146.606-24.047-10.472-132.783z"/>
            <path fill="#6593AF" stroke="#6593AF" d="M363.314-92.705l-245.073 8.31L319.138 64.126z"/>
            <path fill="#5CAD9C" stroke="#5CAD9C" d="M1879.708 48.88l-52.273-193.862L1691.526 12.4z"/>
            <path fill="#5FB39E" stroke="#5FB39E" d="M1879.708 48.428L1691.526 11.85l16.728 206.93z"/>
            <path fill="#58AE97" stroke="#58AE97" d="M1888.46 181.256l-10.437-132.377-171.18 169.9z"/>
            <path fill="#5E99A2" stroke="#5E99A2" d="M321.74 411.6l172.864 1.04-117-163.365z"/>
            <path fill="#6397AB" stroke="#6397AB" d="M137.934 202.203l238.51 47.072-57.79-185.148z"/>
            <path fill="#59919E" stroke="#59919E" d="M168.568 381.271l152.512 30.37 55.363-163.366z"/>
            <path fill="#51AA8F" stroke="#51AA8F" d="M1875.935 351.65l12.526-169.9-181.618 37.524z"/>
            <path fill="#50A98E" stroke="#50A98E" d="M1877.52 351.65l-170.677-132.87 10.536 132.87z"/>
            <path fill="#6390AD" stroke="#6390AD" d="M120.129-83.992l-6.265 99.436 205.687 48.683z"/>
            <path fill="#6394AC" stroke="#6394AC" d="M113.864 16.206l26.103 187.326L319.55 65.392z"/>
            <path fill="#5C86A7" stroke="#5C86A7" d="M119.24-83.992L-42.682 16.206h155.656z"/>
            <path fill="#5A8FA0" stroke="#5A8FA0" d="M137.934 201.354l29.42 178.613 209.09-131.883z"/>
            <path fill="#56A895" stroke="#56A895" d="M2070.078 1.977l-242.886-146.959 52.573 193.861z"/>
            <path fill="#53AB91" stroke="#53AB91" d="M2025.314 186.106L1878.708 48.88l10.547 133.037z"/>
            <path fill="#4CA78A" stroke="#4CA78A" d="M2025.314 185.92l-136.13-4.17-12.664 169.9z"/>
            <path fill="#45A384" stroke="#45A384" d="M1991.49 401.75l34.824-215.644-148.794 165.64z"/>
            <path fill="#56AD95" stroke="#56AD95" d="M2025.903 183.928L2070.078.958l-190.37 46.783z"/>
            <path fill="#50A090" stroke="#50A090" d="M2069.03 3.137l1.048-156.832-242.886 9.41z"/>
            <path fill="#5E8BA9" stroke="#5E8BA9" d="M112.84 16.206H-42.683l181.617 187.326z"/>
            <path fill="#518498" stroke="#518498" d="M139.086 201.354L28.526 399.571l140.042-19.718z"/>
            <path fill="#557DA2" stroke="#557DA2" d="M-9.209-155.873l-34.474 169.9 161.924-99.453z"/>
            <path fill="#518198" stroke="#518198" d="M-45.871 230.412l75.658 169.16 110.335-198.218z"/>
            <path fill="#5784A1" stroke="#5784A1" d="M-42.719 16.206l-3.152 215.643 185.993-29.17z"/>
            <path fill="#487A8F" stroke="#487A8F" d="M-45.871 231.849l58.898 287.524 15.5-117.1z"/>
            <path fill="#437688" stroke="#437688" d="M-45.871 231.849L35.09 695.808 13.293 517.922z"/>
        </g>
    </g>
</svg>
